# xmcd CD database file
#
# Track frame offsets:
#	150
#	3809
#	29169
#	56635
#	84489
#	112503
#	137238
#	159207
#	181239
#	204526
#
# Disc length: 2823 seconds
#
# Revision: 0
# Processed by: cddbd v1.5.1PL0 Copyright (c) Steve Scherf et al.
# Submitted via: CDex 1.51
#
DISCID=750b050a
DTITLE=Pillow Killz - Pillow Killz
DYEAR=1994
DGENRE=Heavy Metal
TTITLE0=Between Two Worlds
TTITLE1=Invited By The Circle
TTITLE2=Frozen Desert
TTITLE3=Loss Of Mankind
TTITLE4=Recall The Jackal
TTITLE5=Ever Free Never Sad
TTITLE6=Two Sides... (To Everything)
TTITLE7=Time Stood Still
TTITLE8=Nothing To Come
TTITLE9=Mentallt III
EXTD=YEAR: 1994
EXTT0=
EXTT1=
EXTT2=
EXTT3=
EXTT4=
EXTT5=
EXTT6=
EXTT7=
EXTT8=
EXTT9=
PLAYORDER=
